<?xml version="1.0" encoding="UTF-8"?>
<svg id="Layer_1" data-name="Layer 1" xmlns="http://www.w3.org/2000/svg" viewBox="0 0 850 460.04">
  <defs>
    <style>
      .cls-1 {
        fill: none;
        stroke: #fff;
        stroke-miterlimit: 10;
        stroke-width: 60px;
      }

      .cls-2 {
        fill: #fff;
      }
    </style>
  </defs>
  <polyline id="Tatry_Krivka" data-name="Tatry Krivka" class="cls-1" points="35.02 229.2 106.15 249.95 227.81 133.2 389.87 160.77 464.96 76.89 579.02 177.88 706.38 96.85 809.04 159.34"/>
  <path id="DIVADLO" class="cls-2" d="M763.67,241.97c62.1-.3,63.05,91.9-1.01,91.37-60.01-.5-59.98-91.07,1.01-91.37ZM763.73,319.91c47.64.12,40.63-65.94.24-65.82s-47.88,65.7-.24,65.82Z"/>
  <polygon id="DIVADL" class="cls-2" points="671.61 243.82 671.61 316.47 712.19 316.53 712.05 331.56 656.46 331.56 656.52 243.82 671.61 243.82"/>
  <path id="DIVAD" class="cls-2" d="M567.32,331.25v-87.41l13.04-.08c13.78-.24,47.62,6.31,48.71,42.18,1.07,35.17-34.34,44.79-48.24,45.39l-13.52-.07ZM580.8,317.8c45.43.21,45.07-61.45,0-60.51v60.51Z"/>
  <path id="DIVA" class="cls-2" d="M465.83,331.84l28.75-87.8h14.73l29.82,87.45-73.31.36ZM521.2,318.05l-18.89-55.6-18.77,56.2,37.66-.59Z"/>
  <polygon id="DIV" class="cls-2" points="421.16 309.26 441.95 243.68 457.04 243.56 427.81 331.36 414.5 331.48 385.28 243.8 400.6 243.91 421.16 309.26"/>
  <polygon id="DI" class="cls-2" points="362.51 244.08 362.52 257.53 340.61 257.54 340.61 318.02 362.52 318.03 362.51 331.48 306.92 331.48 306.92 318.03 327.14 318.04 327.14 257.52 306.92 257.53 306.92 244.08 362.51 244.08"/>
  <path id="D" class="cls-2" d="M224.39,331.48v-87.41l13.04-.08c13.78-.24,47.62,6.31,48.71,42.18,1.07,35.17-34.34,44.79-48.24,45.39l-13.52-.07ZM237.87,318.04c45.43.21,45.07-61.45,0-60.51v60.51Z"/>
  <path id="POPRAD" class="cls-2" d="M732.58,439.72v-87.41l13.04-.08c13.78-.24,47.62,6.31,48.71,42.18,1.07,35.17-34.34,44.79-48.24,45.39l-13.52-.07ZM746.05,426.27c45.43.21,45.07-61.45,0-60.51v60.51Z"/>
  <path id="POPRA" class="cls-2" d="M635.06,440.51l28.75-87.8h14.73l29.82,87.45-73.31.36ZM690.42,426.73l-18.89-55.6-18.77,56.2,37.66-.59Z"/>
  <path id="POPR" class="cls-2" d="M569.53,401.83l-.13,38h-13.47l.13-86.69,36.83-.16c30.97,0,32.55,48.71,3.01,49.82l-9.89.02,33.58,37.11-16.87-.08-33.19-38.02ZM569.4,389.41h24.42c15.38.17,15.22-23.19,0-23.53h-24.42v23.53Z"/>
  <path id="POP" class="cls-2" d="M486.55,402.38v36.98h-13.47l.13-86.69,36.83-.16c30.97,0,32.55,48.71,3.01,49.82l-26.5.05ZM486.55,388.93h24.42c15.38.17,15.22-23.19,0-23.53h-24.42v23.53Z"/>
  <path id="PO" class="cls-2" d="M409.38,351.6c61.39-.3,61.54,91.74-1.01,91.37-60.02-.36-59.11-91.08,1.01-91.37ZM409.43,429.54c47.64.12,40.63-65.94.24-65.82s-47.88,65.7-.24,65.82Z"/>
  <path id="P" class="cls-2" d="M300.19,402.08v36.98h-13.47l.13-86.69,36.83-.16c30.97,0,32.55,48.71,3.01,49.82l-26.5.05ZM300.19,388.63h24.42c15.38.17,15.22-23.19,0-23.53h-24.42v23.53Z"/>
</svg>