<?xml version="1.0" encoding="UTF-8"?>
<svg id="Layer_1" data-name="Layer 1" xmlns="http://www.w3.org/2000/svg" viewBox="0 0 850 434.41">
  <defs>
    <style>
      .cls-1 {
        fill: none;
        stroke: #254e58;
        stroke-miterlimit: 10;
        stroke-width: 60px;
      }
    </style>
  </defs>
  <polyline id="Tatry_Krivka" data-name="Tatry Krivka" class="cls-1" points="35.02 213.78 106.15 234.53 227.81 117.78 389.87 145.35 464.96 61.46 579.02 162.45 706.38 81.42 809.04 143.92"/>
  <path id="DIVADLO" d="M763.67,226.55c62.1-.3,63.05,91.9-1.01,91.37-60.01-.5-59.98-91.07,1.01-91.37ZM763.73,304.49c47.64.12,40.63-65.94.24-65.82s-47.88,65.7-.24,65.82Z"/>
  <polygon id="DIVADL" points="671.61 228.39 671.61 301.05 712.19 301.11 712.05 316.14 656.46 316.14 656.52 228.39 671.61 228.39"/>
  <path id="DIVAD" d="M567.32,315.82v-87.41l13.04-.08c13.78-.24,47.62,6.31,48.71,42.18,1.07,35.17-34.34,44.79-48.24,45.39l-13.52-.07ZM580.8,302.38c45.43.21,45.07-61.45,0-60.51v60.51Z"/>
  <path id="DIVA" d="M465.83,316.41l28.75-87.8h14.73l29.82,87.45-73.31.36ZM521.2,302.63l-18.89-55.6-18.77,56.2,37.66-.59Z"/>
  <polygon id="DIV" points="421.16 293.84 441.95 228.26 457.04 228.14 427.81 315.94 414.5 316.06 385.28 228.38 400.6 228.49 421.16 293.84"/>
  <polygon id="DI" points="362.51 228.66 362.52 242.11 340.61 242.12 340.61 302.6 362.52 302.61 362.51 316.06 306.92 316.06 306.92 302.61 327.14 302.62 327.14 242.1 306.92 242.11 306.92 228.66 362.51 228.66"/>
  <path id="D" d="M224.39,316.06v-87.41l13.04-.08c13.78-.24,47.62,6.31,48.71,42.18,1.07,35.17-34.34,44.79-48.24,45.39l-13.52-.07ZM237.87,302.62c45.43.21,45.07-61.45,0-60.51v60.51Z"/>
  <path id="POPRAD" d="M732.58,424.3v-87.41l13.04-.08c13.78-.24,47.62,6.31,48.71,42.18,1.07,35.17-34.34,44.79-48.24,45.39l-13.52-.07ZM746.05,410.85c45.43.21,45.07-61.45,0-60.51v60.51Z"/>
  <path id="POPRA" d="M635.06,425.09l28.75-87.8h14.73l29.82,87.45-73.31.36ZM690.42,411.31l-18.89-55.6-18.77,56.2,37.66-.59Z"/>
  <path id="POPR" d="M569.53,386.41l-.13,38h-13.47l.13-86.69,36.83-.16c30.97,0,32.55,48.71,3.01,49.82l-9.89.02,33.58,37.11-16.87-.08-33.19-38.02ZM569.4,373.99h24.42c15.38.17,15.22-23.19,0-23.53h-24.42v23.53Z"/>
  <path id="POP" d="M486.55,386.96v36.98h-13.47l.13-86.69,36.83-.16c30.97,0,32.55,48.71,3.01,49.82l-26.5.05ZM486.55,373.51h24.42c15.38.17,15.22-23.19,0-23.53h-24.42v23.53Z"/>
  <path id="PO" d="M409.38,336.18c61.39-.3,61.54,91.74-1.01,91.37-60.02-.36-59.11-91.08,1.01-91.37ZM409.43,414.12c47.64.12,40.63-65.94.24-65.82s-47.88,65.7-.24,65.82Z"/>
  <path id="P" d="M300.19,386.66v36.98h-13.47l.13-86.69,36.83-.16c30.97,0,32.55,48.71,3.01,49.82l-26.5.05ZM300.19,373.21h24.42c15.38.17,15.22-23.19,0-23.53h-24.42v23.53Z"/>
</svg>