<?xml version="1.0" encoding="UTF-8"?>
<svg id="Layer_5" data-name="Layer 5" xmlns="http://www.w3.org/2000/svg" xmlns:xlink="http://www.w3.org/1999/xlink" viewBox="0 0 500 500">
  <defs>
    <style>
      .cls-1 {
        fill: none;
      }

      .cls-2 {
        fill: #fff;
      }

      .cls-3 {
        clip-path: url(#clippath);
      }
    </style>
    <clipPath id="clippath">
      <rect class="cls-1" x="25" y="25" width="450" height="450"/>
    </clipPath>
  </defs>
  <g class="cls-3">
    <path class="cls-2" d="M295.97,250.57c0,23.15-19.46,42.53-42.68,42.53-24.43.08-43.51-19.08-43.51-43.51,0-23,19.46-42.46,43.14-42.46s43.82,20.66,43.06,43.44"/>
    <path class="cls-2" d="M322.21,196.27c-8.67.75-15.61-7.01-15.84-15.31-.23-8.45,7.39-15.91,15.91-15.76,8.82.08,16.21,7.39,15.84,15.91-.3,7.92-6.64,15.91-15.91,15.16M252.45,316.86c-36.8-.3-67.12-30.39-66.67-67.42.45-37.03,30.39-66.44,67.27-65.99,36.12-.3,66.89,29.49,66.74,67.04-.15,37.33-31.37,66.59-67.35,66.37M358.94,217.61c0-10.48-.53-20.89-1.66-31.3-1.21-11.31-5.81-21.27-14.56-29.11-9.58-8.6-21.27-11.92-33.71-12.14-31.6-.68-63.27-1.13-94.87-.9-11.61.08-23.38.15-34.77,3.85-19.23,6.11-29.71,20.81-31.15,38.91-1.81,22.78-1.51,111.69,0,126.32,1.36,12.44,6.56,23.53,17.04,31.6,10.26,7.92,22.25,10.33,34.46,10.63,38.84.9,77.75,2.34,116.52-1.21,8.75-.83,16.74-3.85,23.76-9.13,13.42-10.03,18.1-24.51,18.48-40.2.68-29.11.6-58.22.45-87.33"/>
    <path class="cls-2" d="M382.01,305.84c-.23,13.95-3.32,27.3-10.63,39.37-8.82,14.48-21.34,24.06-37.56,29.26-14.71,4.75-29.86,4.9-44.95,4.98-28.88.08-57.77,0-86.58-.23-15.16-.08-29.86-2.64-43.29-10.18-15.54-8.75-25.94-21.87-31.3-39.06-3.62-11.54-4.3-23.45-4.9-35.44-.08-2.11-.23-69.98.23-94.27.3-16.67,2.87-32.96,12.37-47.29,8.75-13.35,20.74-22.25,35.9-27.38,14.86-4.98,30.17-4.98,45.48-5.05,29.41,0,58.82,0,88.24.3,16.52.15,32.28,3.62,46.3,12.97,15.76,10.48,25.34,25.41,28.51,43.89,1.89,10.94,2.87,22.17,2.87,33.26.15,31.6-.15,63.27-.68,94.87M390.46,25H109.54c-46.46,0-84.54,38.08-84.54,84.54v280.92c0,46.53,38.08,84.54,84.54,84.54h280.92c46.53,0,84.54-38.01,84.54-84.54V109.54c0-46.46-38.01-84.54-84.54-84.54"/>
  </g>
</svg>